<svg width="17" height="15" viewBox="0 0 17 15" fill="none" xmlns="http://www.w3.org/2000/svg">
<g clip-path="url(#clip0)">
<path d="M16.875 6.14071V6.60946C16.875 6.99779 16.5602 7.31258 16.1719 7.31258H15.9375L15.1725 12.6677C15.0735 13.3605 14.4802 13.8751 13.7804 13.8751H3.09463C2.39481 13.8751 1.80149 13.3605 1.7025 12.6677L0.9375 7.31258H0.703125C0.314795 7.31258 0 6.99779 0 6.60946V6.14071C0 5.75238 0.314795 5.43758 0.703125 5.43758H2.67601L5.80433 1.13619C6.10887 0.717476 6.69516 0.624868 7.11393 0.929409C7.53267 1.23395 7.62524 1.82027 7.3207 2.23901L4.99444 5.43758H11.8806L9.5543 2.23898C9.24976 1.82027 9.34236 1.23392 9.7611 0.92938C10.1798 0.624839 10.7662 0.717417 11.0707 1.13616L14.199 5.43758H16.1719C16.5602 5.43758 16.875 5.75238 16.875 6.14071ZM9.14062 11.297V8.01571C9.14062 7.62738 8.82583 7.31258 8.4375 7.31258C8.04917 7.31258 7.73438 7.62738 7.73438 8.01571V11.297C7.73438 11.6853 8.04917 12.0001 8.4375 12.0001C8.82583 12.0001 9.14062 11.6853 9.14062 11.297ZM12.4219 11.297V8.01571C12.4219 7.62738 12.1071 7.31258 11.7188 7.31258C11.3304 7.31258 11.0156 7.62738 11.0156 8.01571V11.297C11.0156 11.6853 11.3304 12.0001 11.7188 12.0001C12.1071 12.0001 12.4219 11.6853 12.4219 11.297ZM5.85938 11.297V8.01571C5.85938 7.62738 5.54458 7.31258 5.15625 7.31258C4.76792 7.31258 4.45312 7.62738 4.45312 8.01571V11.297C4.45312 11.6853 4.76792 12.0001 5.15625 12.0001C5.54458 12.0001 5.85938 11.6853 5.85938 11.297Z" fill="#F4F4F4"/>
</g>
<defs>
<clipPath id="clip0">
<rect width="16.875" height="15" fill="white"/>
</clipPath>
</defs>
</svg>
