<svg width="25" height="25" viewBox="0 0 25 25" fill="none" xmlns="http://www.w3.org/2000/svg">
<path fill-rule="evenodd" clip-rule="evenodd" d="M21.9235 6.48124C21.2548 7.32343 20.1689 8.54374 19.2392 8.65937C18.6735 8.72968 18.0235 8.26093 17.3829 7.81874C17.2579 7.75624 16.2923 7.18124 16.1751 7.14687C15.5564 6.9703 14.236 6.91874 13.4376 7.64687C12.6689 8.34999 11.4532 9.65155 10.472 10.8437C9.53447 12.0719 8.55166 13.5484 8.04853 14.4547C7.52353 15.3937 7.90166 16.6359 8.22666 17.1828C8.28603 17.2812 9.00478 18.0203 9.16572 18.1922L9.18916 18.1641C9.78447 18.6641 10.4079 19.1719 10.4782 19.7219C10.5938 20.6375 9.65791 21.9703 8.98916 22.8141C8.32041 23.6594 7.28447 25.1391 5.87353 24.9297C5.34228 24.8516 4.88447 24.6656 4.4329 24.3984L4.4204 24.4125C4.39508 24.3936 4.37008 24.3744 4.3454 24.3547L4.30634 24.3344L4.31103 24.3281C4.05165 24.1281 3.31103 23.575 3.22665 23.5C2.31103 22.6859 0.932899 20.7687 1.99853 17.3203C2.78915 14.7578 4.47509 11.7484 6.77197 8.70468L6.75947 8.69374C6.87197 8.54687 6.98759 8.41405 7.10478 8.27187C7.21416 8.12655 7.32197 7.9828 7.43447 7.83905L7.45009 7.84999C9.8876 4.91405 12.4439 2.56717 14.7767 1.1828C17.9173 -0.679702 20.1501 0.159361 21.1814 0.826549C21.2782 0.890612 22.0157 1.46405 22.2657 1.65311L22.272 1.64686C22.2814 1.65624 22.2876 1.66874 22.3001 1.67811C22.3227 1.69511 22.345 1.7123 22.3673 1.72967L22.3579 1.74217C22.7361 2.1078 23.0392 2.49842 23.2486 2.99061C23.797 4.28593 22.5923 5.63593 21.9235 6.48124V6.48124Z" fill="#F4F4F4"/>
</svg>
