<svg width="23" height="45" viewBox="0 0 23 45" fill="none" xmlns="http://www.w3.org/2000/svg">
<path d="M19.7501 44.5866C20.4803 44.588 21.1879 44.3337 21.7501 43.8679C22.0665 43.6055 22.3281 43.2833 22.5198 42.9197C22.7116 42.5562 22.8297 42.1583 22.8674 41.749C22.9052 41.3397 22.8618 40.927 22.7398 40.5345C22.6177 40.142 22.4195 39.7774 22.1564 39.4616L8.15636 22.7116L21.6564 5.93036C21.9159 5.61071 22.1098 5.24291 22.2268 4.8481C22.3437 4.45329 22.3815 4.03925 22.338 3.62979C22.2944 3.22032 22.1704 2.8235 21.9729 2.46214C21.7755 2.10078 21.5086 1.78199 21.1876 1.52411C20.8643 1.23962 20.4856 1.02503 20.0754 0.893815C19.6653 0.762599 19.2324 0.717588 18.8039 0.761603C18.3755 0.805618 17.9608 0.937711 17.5859 1.14959C17.2109 1.36147 16.8838 1.64857 16.6251 1.99286L1.53136 20.7429C1.07173 21.302 0.820461 22.0034 0.820461 22.7272C0.820461 23.4511 1.07173 24.1524 1.53136 24.7116L17.1564 43.4616C17.4699 43.8398 17.8681 44.1387 18.3187 44.3342C18.7694 44.5297 19.2598 44.6161 19.7501 44.5866Z" fill="white" fill-opacity="0.5"/>
</svg>
