<svg width="30" height="60" viewBox="0 0 30 60" fill="none" xmlns="http://www.w3.org/2000/svg">
<path d="M25.3333 59.1667C26.3069 59.1686 27.2504 58.8295 28 58.2083C28.4219 57.8585 28.7707 57.429 29.0263 56.9442C29.2819 56.4594 29.4394 55.929 29.4897 55.3832C29.54 54.8375 29.4822 54.2872 29.3195 53.7638C29.1568 53.2405 28.8925 52.7544 28.5417 52.3333L9.87499 30L27.875 7.625C28.2211 7.1988 28.4796 6.7084 28.6355 6.18199C28.7915 5.65557 28.8419 5.10352 28.7838 4.55757C28.7257 4.01162 28.5603 3.48253 28.2971 3.00071C28.0339 2.51889 27.678 2.09384 27.25 1.75C26.8189 1.37068 26.314 1.08457 25.7671 0.909611C25.2202 0.734657 24.643 0.674641 24.0718 0.733328C23.5005 0.792015 22.9476 0.968139 22.4477 1.25065C21.9478 1.53315 21.5116 1.91595 21.1667 2.375L1.04166 27.375C0.428818 28.1206 0.0937939 29.0557 0.0937939 30.0208C0.0937939 30.9859 0.428818 31.9211 1.04166 32.6667L21.875 57.6667C22.293 58.1709 22.824 58.5695 23.4248 58.8301C24.0257 59.0907 24.6795 59.206 25.3333 59.1667Z" fill="white" fill-opacity="0.5"/>
</svg>
