<svg width="23" height="45" viewBox="0 0 23 45" fill="none" xmlns="http://www.w3.org/2000/svg">
<path d="M3.25013 44.5866C2.51997 44.588 1.81235 44.3337 1.25013 43.8679C0.933696 43.6055 0.672128 43.2833 0.480403 42.9197C0.288678 42.5562 0.170564 42.1583 0.132827 41.749C0.09509 41.3397 0.138471 40.927 0.260485 40.5345C0.382499 40.142 0.580747 39.7774 0.843878 39.4616L14.8439 22.7116L1.34388 5.93036C1.0843 5.61071 0.89045 5.24291 0.773476 4.8481C0.656502 4.45329 0.618708 4.03925 0.662268 3.62979C0.705828 3.22032 0.829881 2.8235 1.0273 2.46214C1.22472 2.10078 1.49161 1.78199 1.81263 1.52411C2.13596 1.23962 2.5146 1.02503 2.9248 0.893815C3.33499 0.762599 3.76788 0.717588 4.1963 0.761603C4.62472 0.805618 5.03941 0.937711 5.41435 1.14959C5.7893 1.36147 6.1164 1.64857 6.37513 1.99286L21.4689 20.7429C21.9285 21.302 22.1798 22.0034 22.1798 22.7272C22.1798 23.4511 21.9285 24.1524 21.4689 24.7116L5.84388 43.4616C5.53039 43.8398 5.13216 44.1387 4.6815 44.3342C4.23085 44.5297 3.74046 44.6161 3.25013 44.5866Z" fill="white" fill-opacity="0.5"/>
</svg>
