<svg width="30" height="60" viewBox="0 0 30 60" fill="none" xmlns="http://www.w3.org/2000/svg">
<path d="M4.66668 59.1667C3.69313 59.1686 2.74964 58.8295 2.00001 58.2083C1.5781 57.8585 1.22934 57.429 0.973707 56.9442C0.718074 56.4594 0.560589 55.929 0.510273 55.3832C0.459957 54.8375 0.517799 54.2872 0.680484 53.7638C0.84317 53.2405 1.1075 52.7544 1.45834 52.3333L20.125 30L2.12501 7.625C1.7789 7.1988 1.52044 6.7084 1.36447 6.18199C1.20851 5.65557 1.15811 5.10352 1.21619 4.55757C1.27428 4.01162 1.43968 3.48253 1.7029 3.00071C1.96613 2.51889 2.32198 2.09384 2.75001 1.75C3.18112 1.37068 3.68598 1.08457 4.2329 0.909611C4.77983 0.734657 5.35702 0.674641 5.92824 0.733328C6.49946 0.792015 7.05238 0.968139 7.55231 1.25065C8.05223 1.53315 8.48837 1.91595 8.83334 2.375L28.9583 27.375C29.5712 28.1206 29.9062 29.0557 29.9062 30.0208C29.9062 30.9859 29.5712 31.9211 28.9583 32.6667L8.12501 57.6667C7.70702 58.1709 7.17605 58.5695 6.57517 58.8301C5.9743 59.0907 5.32045 59.206 4.66668 59.1667Z" fill="white" fill-opacity="0.5"/>
</svg>
